<?xml version="1.0" encoding="utf-8"?>
<!-- Generator: Adobe Illustrator 19.2.1, SVG Export Plug-In . SVG Version: 6.00 Build 0)  -->
<svg version="1.1" id="Graphics" xmlns="http://www.w3.org/2000/svg" xmlns:xlink="http://www.w3.org/1999/xlink" x="0px" y="0px"
	 viewBox="0 0 133.1 44.7" style="enable-background:new 0 0 133.1 44.7;" xml:space="preserve">
<style type="text/css">
	.st0{fill:url(#SVGID_1_);}
	.st1{fill:#FFFFFF;}
	.st2{fill:#00CCFF;}
	.st3{fill:#7D7D7D;}
</style>
<g>
	<g>
		<g>
			<linearGradient id="SVGID_1_" gradientUnits="userSpaceOnUse" x1="22.333" y1="-6.511982e-010" x2="22.333" y2="44.666">
				<stop  offset="0" style="stop-color:#00CCFF"/>
				<stop  offset="2.313554e-003" style="stop-color:#01CBFF"/>
				<stop  offset="0.1469" style="stop-color:#2896F3"/>
				<stop  offset="0.2932" style="stop-color:#4B68E9"/>
				<stop  offset="0.4385" style="stop-color:#6642E1"/>
				<stop  offset="0.5825" style="stop-color:#7C25DB"/>
				<stop  offset="0.7248" style="stop-color:#8C11D7"/>
				<stop  offset="0.8649" style="stop-color:#9504D4"/>
				<stop  offset="1" style="stop-color:#9800D3"/>
			</linearGradient>
			<path class="st0" d="M44.7,36.8c0,4.3-3.5,7.8-7.8,7.8h-29c-4.3,0-7.8-3.5-7.8-7.8v-29C0,3.5,3.5,0,7.8,0h29
				c4.3,0,7.8,3.5,7.8,7.8V36.8z"/>
		</g>
		<g>
			<path class="st1" d="M36.9,34.5c0.3-0.4,0.4-1,0.5-1.6c0.1-0.6,0.1-1.1,0-1.7c0-1.2-0.1-2.3-0.2-3.5c-0.1-1.1-0.2-2.3-0.3-3.4
				c-0.2-1.4-0.3-2.8-0.5-4.2c-0.2-1.4-0.4-2.7-0.6-4.1c-0.2-1-0.4-2-0.6-2.9c-0.1-0.5-0.3-1-0.5-1.4c-0.2-0.5-0.5-1-0.8-1.3
				c-0.6-0.5-1.4-0.7-2.1-0.3c-0.7,0.4-1.1,1.1-1.5,1.7c-0.6,1-1,2.2-1.4,3.3c-0.1,0.3-0.2,0.7-0.4,1c-0.8-1.5-1.6-2.9-2.6-4.2
				c-0.6-0.8-1.4-1.6-2.3-2.1c-0.7-0.3-1.5-0.4-2.2-0.1c-0.9,0.4-1.7,1.1-2.3,1.9c-1,1.2-1.8,2.7-2.6,4.1c-0.1,0.2-0.2,0.4-0.3,0.6
				c-0.3-0.9-0.6-1.8-1-2.7c-0.3-0.7-0.6-1.3-0.9-2c-0.4-0.8-1.1-1.7-2.1-1.7c-1.6,0-2.2,1.8-2.5,3.1c-0.4,1.4-0.7,2.9-0.9,4.3
				c-0.3,2-0.6,4-0.8,6c-0.2,1.6-0.4,3.2-0.5,4.8c-0.1,0.8-0.1,1.7-0.2,2.5c0,0.8-0.1,1.7,0,2.5c0.1,0.4,0.1,0.8,0.3,1.1
				c0.2,0.4,0.5,0.6,0.9,0.7c1,0.2,1.7-0.7,2.1-1.4c0.5-0.8,0.9-1.6,1.3-2.4c0.4-0.9,0.8-1.7,1.2-2.6c0.4-1,0.8-2,1.3-3
				c0.1-0.2,0.6-1.3,0.6-1.3s-0.9-2.6-1.1-3.1c-0.6,1.4-1.2,2.8-1.8,4.1c-0.5,1.3-1.1,2.6-1.7,3.8c-0.3,0.6-0.6,1.3-0.9,1.9
				c0-1.1,0.1-2.2,0.2-3.4c0.1-1.2,0.2-2.3,0.4-3.5c0.2-1.4,0.3-2.9,0.5-4.3c0.2-1.3,0.4-2.6,0.6-3.9c0.2-1,0.4-2.1,0.8-3.1
				c0-0.1,0.1-0.2,0.1-0.3c0.3,0.6,0.6,1.2,0.9,1.8c0.3,0.8,0.6,1.5,0.9,2.3c0.6,1.7,1.2,3.4,1.8,5.1c0.6,1.5,1.2,3,1.9,4.4
				c0.6,1.1,1.2,2.2,2.1,3c0.7,0.6,1.5,1.1,2.4,1.2c0.9,0.1,1.7-0.3,2.4-0.8c0.9-0.7,1.5-1.7,2.1-2.6c0.8-1.4,1.4-2.8,1.9-4.2
				c0.7-1.7,1.2-3.4,1.8-5.1c0.3-0.8,0.6-1.6,0.9-2.4c0.3-0.7,0.6-1.4,0.9-2.1c0.1-0.2,0.2-0.4,0.3-0.6c0.2,0.4,0.4,0.9,0.5,1.4
				c0.1,0.5,0.2,1,0.4,1.5c0.3,1.2,0.5,2.5,0.6,3.8c0.2,1.5,0.4,3,0.6,4.4c0.1,1.2,0.3,2.4,0.4,3.6c0.1,1.1,0.2,2.2,0.2,3.3
				c0,0.2,0,0.3,0,0.5c-0.6-1.2-1.1-2.4-1.6-3.6c-0.6-1.3-1.2-2.7-1.7-4c-0.3-0.8-0.7-1.6-1-2.4c-0.2,0.6-1.1,3.1-1.1,3.1
				s1.2,2.7,1.6,3.8c0.4,1,0.9,2.1,1.4,3.1c0.4,1,0.9,1.9,1.5,2.8c0.3,0.5,0.7,1,1.3,1.2C35.9,35.2,36.5,35,36.9,34.5z M26.6,21.3
				C26,23,25.3,24.7,24.5,26c-1.2,2-1.8,2.2-2.2,2.2c-0.7,0-1.4-0.8-2.3-2.2c-0.8-1.3-1.5-3.1-2.1-4.7l0,0c-0.2-0.7-0.5-1.3-0.7-2
				c0.5-1,1-2,1.5-2.9c2.4-4.4,3.3-4.6,3.7-4.6c0.4,0,1.3,0.2,3.7,4.6c0.5,0.9,0.9,1.8,1.4,2.7C27.3,19.6,26.7,21.1,26.6,21.3z"/>
		</g>
	</g>
	<g>
		<path class="st2" d="M129.3,6.9h-0.9v2.5h-0.6V6.9H127V6.4h2.3V6.9z M131.5,8.5l0.8-2.1h0.8v2.9h-0.5V7h0l-0.9,2.3h-0.4L130.5,7h0
			v2.3h-0.5V6.4h0.8L131.5,8.5z"/>
		<g>
			<g>
				<path class="st2" d="M100.9,7.1h-1.3c-0.3,0-0.5-0.2-0.5-0.5v-2c0-0.3,0.2-0.5,0.5-0.5h1.3c0.3,0,0.5,0.2,0.5,0.5v2
					C101.4,6.9,101.1,7.1,100.9,7.1z M100.8,22.9h-1.2c-0.3,0-0.5-0.2-0.5-0.5V9.8c0-0.3,0.2-0.5,0.5-0.5h1.2c0.3,0,0.5,0.2,0.5,0.5
					v12.6C101.3,22.6,101.1,22.9,100.8,22.9z"/>
				<path class="st2" d="M122,23c-1.2,0-2.4-0.3-3.6-0.8c-0.3-0.1-0.5-0.3-0.5-0.6v-1c0-0.2,0.2-0.3,0.4-0.3c0.1,0,0.1,0,0.2,0
					c1.3,0.5,2.4,0.9,3.6,0.9c1.6,0,2.8-0.4,2.8-1.7c0-0.7-0.4-1.2-1.9-2.1l-2.5-1.5c-1.5-0.9-2.5-2-2.5-3.5c0-2.6,2.3-3.4,4.8-3.3
					c1.8,0.1,2.8,0.6,3.5,1c0.3,0.2,0.4,0.4,0.4,0.6v0.9c0,0.3-0.2,0.5-0.5,0.4c-0.7-0.3-1.7-0.9-3.4-1c-1.4-0.1-2.7,0.2-2.7,1.4
					c0,0.7,0.6,1.2,1.7,1.9l2.4,1.5c2.1,1.2,2.7,2.3,2.7,3.7C127,22,125,23.1,122,23z"/>
				<g>
					<path class="st2" d="M69.3,16.5c0-5-0.3-9-0.6-10.6c-0.1-0.6-0.5-1.3-1.1-1.5c-0.9-0.4-1.9,0.2-2.3,1l-3.7,7.6L58,5.5
						c-0.4-0.8-1.4-1.4-2.3-1c-0.6,0.2-1,0.9-1.1,1.5C54.3,7.5,54,11.9,54,16.5v5.8c0,0.3,0.3,0.5,0.6,0.5h1.1
						c0.3,0,0.6-0.2,0.6-0.5v-5.8c0-4,0.2-7.4,0.4-8.9c0,0,2.3,4.9,3.3,6.8c0.7,1.5,1.2,1.7,1.8,1.7c0.6,0,1.1-0.2,1.8-1.7
						c0.9-1.9,3.2-6.8,3.2-6.8c0.2,1.5,0.4,4.9,0.4,8.9v5.8c0,0.3,0.3,0.5,0.6,0.5h1.1c0.3,0,0.6-0.2,0.6-0.5V16.5z"/>
				</g>
				<path class="st2" d="M94.9,9.3c-0.2,0-0.4,0.3-0.5,0.5c-0.3,1.4-0.8,3.2-1.7,5.7c-0.6,1.8-1.3,3.5-1.9,4.9
					c-0.6-1.4-1.3-3-1.9-4.9c-0.9-2.5-1.4-4.3-1.7-5.7c-0.1-0.2-0.3-0.5-0.5-0.5h-1.2c-0.3,0-0.6,0.2-0.5,0.5
					c0.3,1.5,0.9,3.7,1.8,6.5c2.1,6.2,3,6.6,4,6.6s1.7-0.4,4-6.6c1-2.7,1.5-4.9,1.8-6.5c0.1-0.3-0.2-0.5-0.5-0.5H94.9z"/>
				<path class="st2" d="M77.9,23c-3.7,0-6-2.7-6-7s2.4-7,6-7c3.7,0,6,2.7,6,7S81.6,23,77.9,23z M77.9,11.2c-3.5,0-3.9,3.4-3.9,4.9
					c0,1.5,0.4,4.9,3.9,4.9c3.5,0,3.9-3.4,3.9-4.9C81.8,14.6,81.4,11.2,77.9,11.2z"/>
				<g>
					<path class="st2" d="M115,16.9c0.4,0,0.7-0.3,0.7-0.7v-0.2c0-4.3-2.2-7-5.8-7c-3.5,0-5.8,2.7-5.8,7c0,4.5,2.2,7,6.3,7
						c1.3,0,2.6-0.2,4.1-0.7c0.2-0.1,0.4-0.3,0.4-0.5v-1.1c0-0.2-0.2-0.4-0.4-0.3c-1.5,0.5-2.2,0.7-3.8,0.7c-2.9,0-4.1-1.3-4.4-4
						l0-0.2H115z M110,11.1c2.8,0,3.4,2.3,3.6,4h-7.3C106.5,13.4,107.2,11.1,110,11.1z"/>
				</g>
			</g>
			<g>
				<path class="st3" d="M72.1,40.9h-0.8c-0.2,0-0.3-0.1-0.3-0.3v-5.5c0-1.7-0.6-2.2-1.8-2.2c-0.7,0-1.5,0.3-2.2,0.6v7
					c0,0.2-0.1,0.3-0.3,0.3h-0.8c-0.2,0-0.3-0.1-0.3-0.3v-8.4c0-0.2,0.1-0.3,0.3-0.3h0.8c0.2,0,0.3,0.1,0.3,0.3v0.3
					c0.9-0.5,1.7-0.7,2.6-0.7c2,0,2.9,1.2,2.9,3.4v5.5C72.4,40.7,72.3,40.9,72.1,40.9z"/>
				<path class="st3" d="M102.8,40.9H102c-0.2,0-0.3-0.1-0.3-0.3v-5.5c0-1.7-0.7-2.2-1.8-2.2c-0.5,0-1.6,0.1-2.3,0.5v7.2
					c0,0.2-0.1,0.3-0.3,0.3h-0.8c-0.2,0-0.3-0.1-0.3-0.3V28.8c0-0.2,0.1-0.3,0.3-0.3h0.8c0.2,0,0.3,0.1,0.3,0.3v3.4
					c0.8-0.3,1.8-0.5,2.5-0.5c1.8,0,3,1,3,3.4v5.5C103.2,40.7,103,40.9,102.8,40.9z"/>
				<path class="st3" d="M118.2,32.9c-0.8,0-1.5,0.2-2.3,0.7v7c0,0.2-0.1,0.3-0.3,0.3h-0.8c-0.2,0-0.3-0.1-0.3-0.3v-8.4
					c0-0.2,0.1-0.3,0.3-0.3h0.8c0.2,0,0.3,0.1,0.3,0.3v0.3c0.8-0.6,1.6-0.8,2.3-0.8c0.2,0,0.3,0.1,0.3,0.3v0.7
					C118.5,32.8,118.4,32.9,118.2,32.9z"/>
				<path class="st3" d="M54.8,40.9c0.2,0,0.3-0.2,0.3-0.3l0.6-2.2c0.1-0.6,0.3-1.1,0.4-1.6h5.1c0.1,0.5,0.3,1,0.4,1.6l0.5,2.2
					c0,0.2,0.2,0.3,0.3,0.3h0.8c0.2,0,0.4-0.2,0.3-0.4l-0.6-2.5c-1-4.1-1.9-6.8-3.2-8.8c-0.3-0.4-0.7-0.7-1.2-0.7
					c-0.5,0-1,0.2-1.2,0.7c-1.2,2-2.2,4.7-3.2,8.8l-0.6,2.5c-0.1,0.2,0.1,0.4,0.3,0.4H54.8z M58.7,30c0.8,1.3,1.5,3,2.2,5.3h-4.3
					C57.1,33,57.9,31.3,58.7,30z"/>
				<g>
					<path class="st3" d="M112.2,36.9c0.2,0,0.5-0.2,0.5-0.5v-0.1c0-2.9-1.5-4.7-3.9-4.7s-3.9,1.8-3.9,4.7c0,3,1.5,4.6,4.2,4.6
						c0.8,0,1.8-0.1,2.7-0.5c0.2-0.1,0.3-0.2,0.3-0.4v-0.7c0-0.1-0.1-0.2-0.3-0.2c-1,0.3-1.5,0.4-2.6,0.4c-1.9,0-2.8-0.9-2.9-2.7
						l0-0.1H112.2z M111.2,35.6h-4.9c0.1-1.1,0.5-2.6,2.4-2.6S111.1,34.5,111.2,35.6"/>
				</g>
				<g>
					<path class="st3" d="M126.5,36.9c0.2,0,0.5-0.2,0.5-0.5v-0.1c0-2.9-1.5-4.7-3.9-4.7s-3.9,1.8-3.9,4.7c0,3,1.5,4.6,4.2,4.6
						c0.8,0,1.8-0.1,2.7-0.5c0.2-0.1,0.3-0.2,0.3-0.4v-0.7c0-0.1-0.1-0.2-0.3-0.2c-1,0.3-1.5,0.4-2.6,0.4c-1.9,0-2.8-0.9-2.9-2.7
						l0-0.1H126.5z M123.1,33c1.9,0,2.3,1.6,2.4,2.6h-4.9C120.8,34.5,121.3,33,123.1,33z"/>
				</g>
				<path class="st3" d="M81,31.8h-0.9c-0.1,0-0.3,0.2-0.3,0.3c-0.1,1.7-0.8,4.8-2,7.6h-0.3c-0.1,0-0.2-0.1-0.3-0.2
					c-1.2-2.7-1.9-5.8-2-7.4c0-0.1-0.1-0.3-0.3-0.3h-0.9c-0.2,0-0.3,0.2-0.3,0.3c0.1,1.8,0.8,4.9,2,7.8c0.3,0.6,0.8,0.9,1.5,1
					c-0.2,0.5-0.5,0.9-0.8,1.3c-0.6,1-1.6,0.9-2.8,0.7c-0.1,0-0.3-0.1-0.3,0.2l0,0.6c0,0.2,0.1,0.3,0.3,0.3c0.4,0,0.8,0.1,1.1,0.1
					c1,0,2.2-0.1,3.1-1.4c2.2-3.3,3.4-8.2,3.5-10.7C81.3,31.9,81.1,31.8,81,31.8z"/>
				<path class="st3" d="M94.3,32.1c0-0.2-0.1-0.3-0.3-0.3h-0.9c-0.1,0-0.3,0.2-0.3,0.3c0,1.6-0.5,4.8-1.5,7.5
					c-0.5-1.1-1.4-4.9-1.5-5.5c-0.3-1.2-0.6-1.6-1.3-1.6c-0.7,0-1.1,0.4-1.3,1.6c-0.1,0.5-1,4.3-1.5,5.5c-1-2.7-1.5-5.9-1.5-7.5
					c0-0.1-0.1-0.3-0.3-0.3h-0.9c-0.2,0-0.3,0.2-0.3,0.3c0,1.8,0.5,4.9,1.5,7.8c0.2,0.7,0.7,1,1.3,1c0.6,0,1.1-0.5,1.3-1
					c0.7-1.5,1.5-5.6,1.6-6.1c0.1,0.4,1,4.6,1.6,6.1c0.2,0.6,0.7,1,1.3,1c0.6,0,1.1-0.4,1.3-1C93.8,37,94.3,33.9,94.3,32.1z"/>
			</g>
		</g>
	</g>
</g>
</svg>
